<svg xmlns="http://www.w3.org/2000/svg" id="Layer_1" x="0" y="0" enable-background="new 0 0 480 480" version="1.1" viewBox="0 0 480 480" xml:space="preserve"><ellipse cx="240" cy="423.5" fill="#f7f7ff" rx="225" ry="10"/><rect width="290.3" height="307.1" x="98.4" y="70.4" fill="#f7f7ff"/><path fill="#e1e0ff" d="M330.9 187.6H153.9c-2 0-3.7-1.7-3.7-3.7V96.3c0-2 1.7-3.7 3.7-3.7h177.1c2 0 3.7 1.7 3.7 3.7v87.6C334.6 185.9 333 187.6 330.9 187.6zM388.7 70.4v-16c0-4.4-3.5-7.9-7.9-7.9H106.4c-4.4 0-7.9 3.5-7.9 7.9v16H388.7z"/><circle cx="372" cy="59.4" r="4.8" fill="#5731eb"/><circle cx="355.2" cy="59.4" r="4.8" fill="#e8468a"/><circle cx="338.4" cy="59.4" r="4.8" fill="#53b0a6"/><rect width="2.9" height="37.2" x="138.2" y="328" fill="#d6d4f6"/><rect width="2.9" height="50.4" x="174.6" y="314.7" fill="#d6d4f6"/><rect width="2.9" height="63.7" x="211.1" y="301.5" fill="#d6d4f6"/><rect width="2.9" height="77" x="247.5" y="288.2" fill="#d6d4f6"/><rect width="2.9" height="90.2" x="284" y="275" fill="#d6d4f6"/><rect width="2.9" height="103.5" x="320.4" y="261.7" fill="#d6d4f6"/><rect width="2.9" height="116.7" x="356.9" y="248.5" fill="#d6d4f6"/><path fill="#ffa6bb" d="M194.5,353.9c-0.7,0-1.4,0-2.1,0c-9-0.4-17.5-3.7-25.7-6.9l-0.7-0.3c-9-3.5-17.1-6.3-25.5-6.3
						c0,0,0,0,0,0c-9.4,0-17.9,4.3-21.6,11c-0.4,0.7-1.3,1-2,0.6c-0.7-0.4-1-1.3-0.6-2c5.1-9.2,15.9-12.5,24.2-12.5c0,0,0,0,0.1,0
						c8.9,0,17.3,3,26.6,6.5l0.7,0.3c8,3.1,16.3,6.3,24.8,6.7c17,0.8,32.6-9.3,47-20.4l2.2-1.7c13.6-10.6,27.8-21.5,44.9-23.7
						c8.7-1.1,17.7,0.1,26.4,1.3c12.2,1.7,23.7,3.3,34.3-1.2c8.4-3.6,15.8-11.2,20.9-21.4c4.6-9.3,6-15.5,8.3-25.9
						c0.2-0.8,1-1.3,1.8-1.1c0.8,0.2,1.3,1,1.1,1.8c-2.3,10.2-3.8,16.9-8.5,26.5c-5.4,10.9-13.3,19-22.4,22.8
						c-11.4,4.8-23.9,3.1-35.9,1.4c-8.5-1.2-17.3-2.4-25.6-1.3c-16.3,2.1-30.1,12.8-43.5,23.1l-2.2,1.7
						C227.1,343.8,211.6,353.9,194.5,353.9z"/><g><circle cx="321.9" cy="307.3" r="6.5" fill="#e8468a"/></g><g><circle cx="286.8" cy="304.3" r="6.5" fill="#5731eb"/></g><g><circle cx="249" cy="324" r="6.5" fill="#e8468a"/></g><g><circle cx="212.5" cy="348.6" r="6.5" fill="#5731eb"/></g><g><circle cx="176.1" cy="348.6" r="6.5" fill="#5731eb"/></g><g><circle cx="139.6" cy="337.4" r="6.5" fill="#5731eb"/></g><g><polygon fill="#e1e0ff" points="145.3 271.2 137.2 271.2 137.2 263.2 139 263.2 139 269.4 145.3 269.4"/><rect width="1.8" height="17.6" x="137.2" y="228" fill="#e1e0ff"/><polygon fill="#e1e0ff" points="139 210.4 137.2 210.4 137.2 202.4 145.3 202.4 145.3 204.2 139 204.2"/><path fill="#e1e0ff" d="M225.5,204.2h-13.4v-1.8h13.4V204.2z M198.7,204.2h-13.4v-1.8h13.4V204.2z M172,204.2h-13.4v-1.8H172
							V204.2z"/><polygon fill="#e1e0ff" points="246.9 210.4 245.1 210.4 245.1 204.2 238.8 204.2 238.8 202.4 246.9 202.4"/><rect width="1.8" height="17.6" x="245.1" y="228" fill="#e1e0ff"/><polygon fill="#e1e0ff" points="246.9 271.2 238.8 271.2 238.8 269.4 245.1 269.4 245.1 263.2 246.9 263.2"/><path fill="#e1e0ff" d="M225.5,271.2h-13.4v-1.8h13.4V271.2z M198.7,271.2h-13.4v-1.8h13.4V271.2z M172,271.2h-13.4v-1.8H172
							V271.2z"/><g><rect width="52.7" height="93.6" x="165.7" y="190" fill="#e1e0ff" transform="rotate(90 192.055 236.81)"/></g><g><path fill="#c5c2f2" d="M216.6,217.1h-49.2c-1.6,0-2.8,1.3-2.8,2.8v33.7c0,0.6,0.2,1.2,0.5,1.6c0.5,0.8,1.4,1.3,2.4,1.3h49.2
					c1.6,0,2.9-1.3,2.9-2.9V220C219.5,218.4,218.2,217.1,216.6,217.1z M165.8,220c0-0.9,0.7-1.6,1.6-1.6h49.2c0.9,0,1.6,0.7,1.6,1.6
					V242l-11.5-11.5l-17.3,17.3l-8-8l-15,15c-0.4-0.3-0.7-0.7-0.7-1.3V220z"/></g><g><circle cx="181.2" cy="229.8" r="3.5" fill="#c5c2f2"/></g></g><g><path fill="#fff" d="M324.5,175.9H147.4c-2,0-3.7-1.7-3.7-3.7V84.7c0-2,1.7-3.7,3.7-3.7h177.1c2,0,3.7,1.7,3.7,3.7v87.6
				C328.2,174.3,326.5,175.9,324.5,175.9z"/></g><g><rect width="26.3" height="5.3" x="153.5" y="89.4" fill="#e1e0ff"/><rect width="26.3" height="5.3" x="153.5" y="104" fill="#e1e0ff"/><rect width="26.3" height="5.3" x="153.5" y="118.5" fill="#e1e0ff"/><rect width="26.3" height="5.3" x="153.5" y="133.1" fill="#e1e0ff"/><rect width="26.3" height="5.3" x="153.5" y="147.6" fill="#e1e0ff"/><rect width="26.3" height="5.3" x="153.5" y="162.2" fill="#e1e0ff"/></g><g><path fill="#ffa6bb" d="M248.9,97.1c-8-3.5-17.3-4.1-26.2-0.8c-18.2,6.7-27.5,26.8-20.8,45s26.8,27.5,45,20.8
					c8-2.9,14.3-8.5,18.3-15.4l-30.4-17.5L248.9,97.1z"/><path fill="#53b0a6" d="M275.6,112.6c-3.4-9.3-10.4-16.3-18.9-20l-14.1,32.1L275.6,112.6z"/><path fill="#6273ff" d="M276.7,117.9L243.7,130l30.4,17.5l0,0C279.1,138.8,280.4,128,276.7,117.9z"/></g><g><path fill="#ffc1cd" d="M47.7,341.1c-3.7-1.6-7.3-2.5-10.3-2.5l0.8,65.3c0,0,0.2,1.6,6.6,2c6.4,0.5,7.2-2,7.2-2l6.1-60.9
							C56,343.1,52.1,343,47.7,341.1z"/><path fill="#0a121f" d="M38,418.6c3.4,1.6,41.4,1,40.3-2.4c-1-3-21.5-11.2-25.3-12.7c-0.4-0.1-0.6-0.5-0.6-1l0,0
							c0-0.6-0.5-1.1-1-1l-12.7,0.5c-0.5,0-0.9,0.5-0.9,1.1c0,2.8-2.3,5.7-2.8,8.1C34.3,413.9,34.5,417,38,418.6z"/><path fill="#ffc1cd" d="M80.6,341.1c-3.7-1.6-7.3-2.5-10.3-2.5l0.8,65.3c0,0,0.2,1.6,6.6,2c6.4,0.5,7.2-2,7.2-2l6.1-60.9
							C88.8,343.1,84.9,343,80.6,341.1z"/><path fill="#0a121f" d="M70.8,418.6c3.4,1.6,41.4,1,40.3-2.4c-1-3-21.5-11.2-25.3-12.7c-0.4-0.1-0.6-0.5-0.6-1l0,0
							c0-0.6-0.5-1.1-1-1l-12.7,0.5c-0.5,0-0.9,0.5-0.9,1.1c0,2.8-2.3,5.7-2.8,8.1C67.2,413.9,67.4,417,70.8,418.6z"/><path fill="#0e0063" d="M19.8,343.6c0-0.4,0.1-0.7,0.1-1.1c2-24.6,5.7-67,8.6-88.6c0.6-4.2,1.1-7.6,1.6-10
							c0.3-1.5,0.6-2.5,0.9-3l54.5,4.7c0,0,7.7,72.8,15.1,98H19.8z"/><path fill="#ffc1cd" d="M86.1,154.2L86.1,154.2c0.3,0.2,7.7,5.3,12.5,5.8c1.1,0.1,2,0,2.7-0.5c0.1,0,0.1-0.1,0.2-0.1
							c4.3-3,26.4-16.1,29.3-18.1c0,0,0,0,0.1,0v10c-0.1,0.1-0.2,0.2-0.4,0.4c-0.2,0.2-0.5,0.6-0.9,1c-6.7,5.8-23.9,18.8-27.5,20.3
							c-4.2,1.8-8.7-0.3-9.9,0c-1.2,0.3,0-4.7,0-4.7c-0.7,1.8-2.2,3.5-3.8,5.4c-1.1-0.3-2.1-0.5-2.9-0.7c-1.4-0.4-2.2-0.6-2.2-0.6
							L86.1,154.2z"/><path fill="#ffa6bb" d="M88.3,173.4c3.3,0.8,7.6,1.6,11.9,1.7c7.6,0.2,24.8-17.6,29.4-22.6c-6.7,5.8-23.9,18.8-27.5,20.3
							c-4.2,1.8-8.7-0.3-9.9,0c-1.2,0.3,0-4.7,0-4.7C91.5,169.8,90,171.6,88.3,173.4z"/><path fill="#e8468a" d="M29,244.5c0.4-0.3,0.9-0.5,1.3-0.6c0.2-0.1,0.4-0.1,0.6-0.1c2.6-0.4,5.4,1.8,13.4,4.4
							c0.5,0.2,1,0.3,1.5,0.5c2.9,0.9,6.4,1.7,10.7,2.6c13.1,2.5,23.3-1.9,29.1-5.6c0,0,0,0,0,0c0,0,0.1,0,0.1-0.1
							c3.5-2.2,5.5-6.1,5.4-10.3c-0.2-5.9-1-12.2-2-18.2c-0.7-4.1-1.4-8-2.2-11.7c-0.9-4.2-1.8-8-2.6-11.3c-0.1-0.3-0.1-0.6-0.2-0.8
							c-0.5-2.2-1-4.1-1.4-5.7c-0.5-2-0.4-3.8,0.1-5.4c0.1-0.2,0.1-0.5,0.2-0.7c0.3-0.8,0.6-1.6,1.1-2.4c0.7-1.2,1.5-2.3,2.4-3.4
							c0,0,0,0,0,0c0.2-0.2,0.3-0.4,0.5-0.6c0.4-0.5,0.9-1,1.3-1.5c1.6-1.9,3.1-3.6,3.8-5.4c0.2-0.5,0.4-1.1,0.4-1.6
							c0.2-2.3-2.7-7.1-6.5-12.2l0,0c-6.2-8.5-14.7-17.8-14.7-17.8s-0.6-0.3-1.5-0.6c-4-1.6-15-5.5-23.2-3.5c-1.6,0.4-3.1,1-4.4,1.9
							c-0.3,0.2-0.6,0.4-0.9,0.7c-4.4,3.8-4.8,14-4,23.6l0,0c0.9,10.3,3.1,19.8,3.1,19.8c-0.8,1.7-1.6,3.6-2.3,5.5c0,0,0,0,0,0
							c-1.5,4.2-2.8,8.7-3.8,13.4c-0.1,0.3-0.1,0.6-0.2,0.9c0,0.2-0.1,0.3-0.1,0.5c-0.1,0.4-0.2,0.7-0.2,1.1
							c-0.2,1.1-0.5,2.3-0.7,3.5c-0.1,0.5-0.2,1.1-0.3,1.6c-0.1,0.3-0.1,0.6-0.2,1c-0.1,0.4-0.1,0.7-0.2,1.1c0,0.1,0,0.1,0,0.2
							c-0.1,0.8-0.3,1.6-0.4,2.4c-0.2,1.3-0.4,2.6-0.6,3.9c-0.1,0.8-0.2,1.7-0.3,2.5c-0.5,3.7-0.9,7.2-1.2,10.5
							c0,0.3-0.1,0.6-0.1,0.9c-0.1,1-0.2,2-0.3,3c0,0.3,0,0.5-0.1,0.8c0,0.3,0,0.6-0.1,1c0,0.5-0.1,1-0.1,1.4
							c-0.1,0.9-0.1,1.8-0.2,2.6c0,0.1,0,0.3,0,0.4c0,0.6-0.1,1.2-0.1,1.8c0,0,0,0.1,0,0.1c0,0.2,0,0.5,0,0.7c0,0,0,0.1,0,0.1
							c0,0.3,0,0.6,0,0.9v0c0,0.6-0.1,1.1-0.1,1.5c0,0.1,0,0.1,0,0.1c0,0.3,0,0.6,0,0.8c0,0,0,0.1,0,0.1c0,0.1,0,0.3,0,0.4
							c0,0.1,0,0.1,0,0.2c0,0.1,0,0.2,0,0.3C29,244.1,29,244.5,29,244.5z"/><path fill="#e8468a" d="M73.1,185.2c0,5.9,0.1,12.1,2.7,17.5c1.9,3.8,4.9,6.9,7.9,9.9c-4.7-10.3-3.5-23.1,3.1-32.3
							c2.3-3.2,5.3-6.2,6.1-10.1c0.6-3-0.3-6.2-1.8-8.9c-1.5-2.7-3.6-5-5.8-7.2l-1.7,0.5c-2.4-0.8-5.2,0.5-6.8,2.5
							c-1.6,2-2.3,4.6-2.7,7.1C73,171.2,73,178.2,73.1,185.2z"/><path fill="#bd346c" d="M48.3,163.2c0.1,3.1,1.7,6,3.6,8.5c1.9,2.5,4.2,4.7,6,7.2c3.7,5.2,5.7,12.3,11.4,15.2
							c2.4,1.2,5.2,1.7,7.2,3.4c3.9,3.4,3,9.9,6.3,13.9c1.4,1.7,3.5,2.7,5.1,4.2c0.4,0.4,0.9,0.9,1.2,1.3c-0.7-4.1-1.4-8-2.2-11.7
							c-0.9-4.2-1.8-8-2.6-11.3c-0.1-0.3-0.1-0.6-0.2-0.8c-2-1-4.2-1.7-5.9-3.1c-3-2.4-4.1-6.5-6.6-9.5c-3.8-4.7-10.7-6.7-12.7-12.4
							c-0.8-2.1-0.7-4.4-1.2-6.5c-0.5-2.2-1.9-4.4-4.1-4.7c-1.5-0.3-3.2,0.5-4.1,1.8C48.6,160,48.2,161.6,48.3,163.2z"/><path fill="#ffc1cd" d="M58.2,139.9c3.9,5.5,16.5,11.1,19,7.4c0.2-0.3,0.2-0.6,0-0.9c-0.3-0.6-0.9-2-1.2-3.8
							c-0.2-1.1-0.4-2.5-0.4-4c0-1.4,0.3-2.8,0.8-4.2c1.3-3.5,3.6-6.4,3.6-6.4s0.1,0,0.3,0c1.2,0.2,5.8,0.6,7.7-0.2
							c2-2.5,2.7-5.9,2.8-9.7v0c0.1-0.1,0.1-0.2,0.2-0.2c0.6-0.2,1.9,0,2.3-0.5c0.4-0.6-2.7-5.5-2.7-5.5c-0.1-0.2-0.2-0.4-0.3-0.6
							c-0.4-2.9-1.1-6-1.8-9.1c-4-9.2-12.1-1.6-14.2-1.4c-2.1,0.3-10.5,6.3-11.3,8.9c-0.5,1.6,0.2,7.2,0.8,11.9
							c0.3,2,0.5,3.9,0.7,5.1c0.1,0.7,0.1,1.2,0.1,1.5c0,2.2-7.3,8.3-7.3,8.3C57,137.5,57.4,138.7,58.2,139.9z"/><path fill="#281c1a" d="M83.8,109.4c0,0.8,0.2,1.4,0.5,1.4s0.5-0.6,0.5-1.4s-0.2-1.4-0.5-1.4S83.8,108.7,83.8,109.4z"/><path fill="#ffa6bb" d="M86.4,106.1c0,0-2.1-1.6-4.2-1.2c-2,0.5-2.2,3-2.2,3S81.8,104.6,86.4,106.1z"/><path fill="#fff" d="M86.9,119.7c0,0-2.3,0.5-3.7,0c-1.4-0.5-2,1.1-1.1,2c0.9,0.8,4.7,1.1,4.7,1.1
							C88.4,122.9,88.1,121.4,86.9,119.7z"/><g><path fill="#0e0063" d="M19.6,338.1c0.2,3.1,0.4,6.3,1.5,9.2c1.1,2.9,3.1,5.7,6,6.8c4.8,1.8,10-1,14.2-3.9s8.8-6.3,13.9-5.5
						c6.7,1,11,8.9,17.8,9.2c3.8,0.2,7.3-2.2,11.1-2.1c4.6,0,8.3,3.4,12,6.1c3.7,2.7,8.5,5.1,12.6,3c1.3-0.6,2.3-1.7,3-2.9
						c2.1-4.1-0.2-9-2.3-13.1c-7.3-14.4-15.4-31.8-16.8-47.9"/></g><g><path fill="#ffc1cd" d="M130.6,141.5c1.1-1.7,2.1-3.4,3.2-5.1c0.3-0.5,0.8-1,1.3-0.8c0.4,0.2,0.5,0.8,0.5,1.2c0,1.2,0,2.4,0,3.6
					c3-3.8,8.1-9.7,12.2-7.3c1.6,0.9,0.4,3.6-0.3,5.3c-0.7,1.7-1.8,3.1-3.1,4.4c-4.1,4.4-9.6,7.5-15.5,8.9c-0.3,0.1-0.6,0.1-0.8,0
					c-0.3-0.1-0.4-0.5-0.5-0.8c0-0.3,0.1-0.6,0.2-0.9c0.5-1.4,0.9-2.7,1.4-4.1"/></g><g><path fill="#f7f7ff" d="M162.4,98.4l33,23.2c1.4,1,1.7,2.9,0.7,4.3l-79,112.3c-1,1.4-2.9,1.7-4.3,0.8l-33-23.2L162.4,98.4z"/><path fill="#e1e0ff" d="M162.4,98.4l-6.7-4.7c-1.4-1-3.3-0.6-4.3,0.7l-79,112.3c-1,1.4-0.6,3.3,0.7,4.3l6.7,4.7L162.4,98.4z"/><g><circle cx="109.5" cy="211.4" r="10.8" fill="#ffa6bb"/><path fill="#e1e0ff" d="M167.1 113.7c.5.3.7.8.8 1.3s0 1-.3 1.5l-53.7 76.3c-.6.9-1.9 1.1-2.8.5-.5-.3-.7-.8-.8-1.3-.1-.5 0-1 .3-1.5l53.7-76.3C165 113.3 166.2 113.1 167.1 113.7zM174.5 118.9c.5.3.7.8.8 1.3s0 1-.3 1.5L121.3 198c-.6.9-1.9 1.1-2.8.5-.5-.3-.7-.8-.8-1.3-.1-.5 0-1 .3-1.5l53.7-76.3C172.4 118.5 173.6 118.3 174.5 118.9zM162.3 152c.5.3.7.8.8 1.3.1.5 0 1-.3 1.5l-34.1 48.4c-.6.9-1.9 1.1-2.8.5-.5-.3-.7-.8-.8-1.3-.1-.5 0-1 .3-1.5l34.1-48.4C160.2 151.6 161.4 151.4 162.3 152z"/></g></g><g><path fill="#ffc1cd" d="M61.4,172.8C61.4,172.8,61.4,172.8,61.4,172.8l1.3-3.3l1.2-3c0,0,1.1-0.7,2.3-1.4c1-0.6,2-1.2,2.6-1.6
					c0.3-0.2,0.5-0.3,0.6-0.3c0.2,0,3.6,0.4,5.5,2c0.2,0.2,0.5,0.5,0.9,1c0,0,0,0,0,0c2.5,3.4,7.6,12.9,7.6,12.9c0.3,0,0.5,0,0.9,0
					c0.8,0,1.7,0,2.7,0.1c11,0.5,34.9,3.1,43.8,3.2v9.5c-0.1-0.2-0.2-0.3-0.2-0.3s-51.2,2.9-54.4,0.4c-3.2-2.6-11.5-17.5-11.5-17.5
					s4.1-1.6,6.5-4.2c-0.7,0.4-1.5,0.7-2.4,1.1C65.2,172.4,62.9,172.8,61.4,172.8z"/></g><g><path fill="#ffa6bb" d="M61.4,172.8c0.1,0.3,8.1,20.4,15.4,21.1c1.5,0.1,4.1,0.2,7.5,0.2c1.6,0,3.3,0,5.2-0.1
					c14.1-0.3,34.6-1.3,41-2.5c0,0-51.2,2.9-54.4,0.4c-3.2-2.6-11.5-17.5-11.5-17.5s4.1-1.6,6.5-4.2c-0.7,0.4-1.5,0.7-2.4,1.1
					C65.2,172.4,62.9,172.8,61.4,172.8z"/></g><g><path fill="#ffa6bb" d="M84.8,179c0,0-1.6,1.6-2.4,0.7c-0.8-0.8-1.5-4.9-1.5-4.9l2.3,4.1H84.8z"/></g><g><path fill="#ffc1cd" d="M147.5,185.1c-1.2,1.3-2.7,2.4-4.3,3.2c-5.3,2.8-11.5,4-17.5,3.3c-0.3,0-0.6-0.1-0.8-0.3
					c-0.2-0.2-0.3-0.6-0.2-0.9c0.1-0.3,0.3-0.6,0.5-0.8c0.9-1.1,1.8-2.3,2.7-3.4l2.8-3.8c1.6-1.3,3.1-2.5,4.7-3.8
					c0.4-0.3,1-0.7,1.5-0.3c0.3,0.3,0.2,0.9,0.1,1.3c-0.4,1.1-0.8,2.3-1.2,3.4c4.1-2.6,10.8-6.6,14-2.9
					C150.7,181.6,148.7,183.8,147.5,185.1z"/></g><g><path fill="#e8468a" d="M51,159.3c2.1,4.5,4.9,8.8,6.6,11.1c0.9,1.2,1.4,1.9,1.4,1.9s0.6,0.4,2.3,0.4c1.5,0,3.8-0.4,7.3-1.6
					c0.9-0.3,1.7-0.7,2.4-1.1c0.2-0.1,0.4-0.2,0.6-0.4c2-1.2,3.2-2.5,3.9-3.6c0,0,0,0,0,0c0.9-1.4,1.1-2.5,1.1-2.5l-4.5-8.1l0,0
					l-3.6-6.4c0,0-3.8-12.4-16-6.3c-2.1,1.1-3.3,2.6-3.8,4.5c0,0,0,0,0,0C47.9,150.8,49.1,155.2,51,159.3z"/></g><g><path fill="#230e0d" d="M45.3,124.3c-7,1.4-13.9,14-7.7,23.1c0.8,1.1,1.7,2.2,2.9,3.2c0.5,0.4,1,0.8,1.5,1.1c0,0,0,0,0,0
					c2,1.4,4.6,2.6,7.8,3.5c0,0,0,0,0,0c11.6,3.3,16.9-2.8,19-10.4c0.2-0.8,0.4-1.7,0.6-2.5c0.6-3.1,0.7-6.3,0.5-9.2
					c0-0.3,0-0.7-0.1-1c-0.1-0.6-0.1-1.2-0.2-1.8c0-0.1,0-0.1,0-0.2c-0.3-2.4-0.8-4.2-1.4-5.2c-2.9-5.2-3.2-22.5,11.7-21.7
					C95,104,98.9,92.1,98.9,92.1c1.7-9.9-4.5-14.6-11.5-16c-5.8-1.2-12.2,0-14.5,2.3c-0.7,0.7-1.2,1.3-1.6,2
					c-2.3,4.1-6.6,6.8-11,7.3c-4,0.4-8.5,2.2-12.9,6.8C35.5,106.7,45.3,124.3,45.3,124.3z"/></g></g><g><path fill="#e1e0ff" d="M443.8 104.8v107.4c0 2.1-1.7 3.8-3.8 3.8h-92.9c-2.1 0-3.8-1.7-3.8-3.8V104.8c0-2.1 1.7-3.8 3.8-3.8H440C442.1 101 443.8 102.7 443.8 104.8zM343.4 93.1L343.4 93.1c0 1.8 1.5 3.2 3.2 3.2h93.9c1.8 0 3.2-1.5 3.2-3.2v0c0-1.8-1.4-3.2-3.2-3.2h-93.9C344.9 89.9 343.4 91.3 343.4 93.1z"/><rect width="6.7" height="12.3" x="354.3" y="196" fill="#6273ff"/><rect width="6.7" height="25.4" x="366.3" y="182.9" fill="#6273ff"/><rect width="6.7" height="18" x="378.3" y="190.3" fill="#6273ff"/><rect width="6.7" height="30.3" x="390.3" y="178" fill="#6273ff"/><rect width="6.7" height="36.8" x="402.3" y="171.5" fill="#6273ff"/><rect width="6.7" height="23.7" x="414.3" y="184.5" fill="#6273ff"/><rect width="6.7" height="45.9" x="426.3" y="162.4" fill="#6273ff"/><path fill="#ffa6bb" d="M372.9,149.4c-10.3,0-18.7-8.4-18.7-18.7c0-5.6,2.5-10.9,6.7-14.3l2.8,4.5c-2.7,2.5-4.3,6.1-4.3,9.8
						c0,7.5,6.1,13.5,13.5,13.5c3.8,0,7.3-1.6,9.8-4.3l4.5,2.7C383.8,146.9,378.5,149.4,372.9,149.4z"/><path fill="#fff" d="M385.7 135.2c.5-1.4.8-2.9.8-4.4 0-7.4-6.1-13.5-13.5-13.5-1.5 0-3 .3-4.4.8l-2.8-4.6c2.2-1 4.7-1.5 7.2-1.5 10.3 0 18.8 8.4 18.8 18.8 0 2.5-.5 5-1.5 7.2L385.7 135.2zM356.3 181.9c-.1 0-.3-.1-.4-.2-.2-.2-.2-.5 0-.7l15.8-15.1c.1-.1.3-.2.5-.1l15.5 3.7 14.8-17.6c.1-.1.3-.2.4-.2l12.7 1.4 11.3-14.5c.1-.1.2-.1.3-.2l7.2-2.2c.3-.1.6.1.6.3.1.3-.1.6-.3.6l-7 2.1-11.4 14.6c-.1.1-.3.2-.5.2l-12.8-1.4-14.9 17.6c-.1.1-.3.2-.5.2l-15.5-3.8-15.6 14.9C356.6 181.9 356.5 181.9 356.3 181.9z"/><g><circle cx="356.3" cy="181.4" r="2" fill="#fff"/></g><g><circle cx="372" cy="166.4" r="2" fill="#fff"/></g><g><circle cx="388" cy="170" r="2" fill="#fff"/></g><g><circle cx="403" cy="152.5" r="2" fill="#fff"/></g><g><circle cx="416.1" cy="153.9" r="2" fill="#fff"/></g><g><circle cx="434.9" cy="137" r="2" fill="#fff"/></g><g><path fill="#c5c2f2" d="M421.7 117c0 .5-.2 1-.6 1.4-.3.4-.8.6-1.4.6h-19.7c-1.1 0-1.9-.9-1.9-1.9 0-.5.2-1 .6-1.4.3-.4.8-.6 1.4-.6h19.7C420.8 115.1 421.7 116 421.7 117zM436.8 123.4c0 .5-.2 1-.6 1.4-.3.4-.8.6-1.4.6h-34.8c-1.1 0-1.9-.9-1.9-1.9 0-.5.2-1 .6-1.4.3-.4.8-.6 1.4-.6h34.8C436 121.5 436.8 122.3 436.8 123.4zM436.8 129.6c0 .5-.2 1-.6 1.4-.3.4-.8.6-1.4.6h-34.8c-1.1 0-1.9-.9-1.9-1.9 0-.5.2-1 .6-1.4.3-.4.8-.6 1.4-.6h34.8C436 127.6 436.8 128.5 436.8 129.6z"/></g></g></svg>